<svg id="b75abd17-5034-48e7-abd1-cfb4d879caa1" data-name="Layer 1" xmlns="http://www.w3.org/2000/svg" viewBox="0 0 187.54 32.55"><path d="M176.36,15.28l-.75-.83a1.88,1.88,0,0,0-.56-.45,4.61,4.61,0,0,0-2.05-.44c-2.57,0-4,1.88-4,4.37V28.49c0,4.61-2.24,6.72-5.41,6.72-3.55,0-5.89-2.47-5.89-6.85v-10h-1.42v10.3c0,5.28,3.12,7.93,7.31,7.93,3.63,0,6.83-2.24,6.83-7.75V18.11c0-2.06,1.15-3.21,2.75-3.21.21,0,.65.06.59,0h.06l.94.32h0" transform="translate(-6.05 -4)" fill="#12104e"/><path d="M176.36,15.28h0l7.53,9.35,7.63-9.36h1.59l-8.28,10.2,8.75,10.86h-1.64l-8.05-9.92-8,9.92h-1.59L183,25.53l-8.28-10.24h0" transform="translate(-6.05 -4)" fill="#12104e"/><path d="M6.05,4H7.37V35.94H6.05Zm4.74,21.13L21.92,35.94H20.1l-11-10.72,10.17-9.81h1.74Z" transform="translate(-6.05 -4)" fill="#12104e"/><path d="M28.86,6.24a1,1,0,0,1,1,1,1,1,0,0,1-1,1,1.06,1.06,0,0,1-1.05-1A1,1,0,0,1,28.86,6.24Zm-.69,9.17h1.28V35.94H28.17Z" transform="translate(-6.05 -4)" fill="#12104e"/><path d="M38.53,15.41h1.33v3.1A11.14,11.14,0,0,1,47.75,15c5.79,0,8.67,2.88,8.67,9.31V35.94H55.14V24.62c0-5.65-2.42-8.35-7.62-8.35a10.48,10.48,0,0,0-7.66,3.52V35.94H38.53Z" transform="translate(-6.05 -4)" fill="#12104e"/><path d="M72.85,15A10.26,10.26,0,0,1,83.48,25.67a10.61,10.61,0,1,1-21.22,0A10.25,10.25,0,0,1,72.85,15Zm0,20.12c5.43,0,9.26-3.92,9.26-9.45s-3.83-9.44-9.26-9.44-9.27,3.92-9.27,9.44S67.42,35.12,72.85,35.12Z" transform="translate(-6.05 -4)" fill="#12104e"/><path d="M88.18,14c1.14-2.79,4.19-3.86,7.74-2.41a8.34,8.34,0,0,1,4.62,4.26l-1,.64a7.39,7.39,0,0,0-4.16-3.82c-2.79-1.14-5.21-.16-6,1.79C87,20.4,98.86,22,96.16,28.63,94.69,32.22,91,32.7,87.62,31.3c-2.36-1-4.71-3.41-5.05-5.12l1.07-.45c.45,1.8,2.57,3.71,4.48,4.49,2.57,1.05,5.64.78,6.78-2C97.18,22.64,85.33,21,88.18,14Z" transform="translate(-6.05 -4)" fill="#12104e"/><path d="M99.51,15.41H104V9.7h1.28v5.71h8v1.23h-8V27.73c0,4.74,1.55,7.21,5.38,7.21a5.89,5.89,0,0,0,3.33-1.1l.5,1a7.11,7.11,0,0,1-4.06,1.28c-4.56,0-6.43-2.78-6.43-8V16.64H99.51Z" transform="translate(-6.05 -4)" fill="#12104e"/><path d="M136.79,33.25a10.1,10.1,0,0,1-7.48,3.1c-6.3,0-10.77-4.2-10.77-10.68,0-6,3.42-10.67,10.17-10.67a8.77,8.77,0,0,1,9.17,9.21,11.44,11.44,0,0,1-.09,1.42H120c0,5.84,3.74,9.49,9.4,9.49a9.54,9.54,0,0,0,6.94-2.83Zm-16.93-8.72h16.7c.05-5.11-3.15-8.3-8-8.3C123.24,16.23,120.23,19.79,119.86,24.53Z" transform="translate(-6.05 -4)" fill="#12104e"/><path d="M144.09,4h1.32V29.83c0,3.42.82,5.06,3.33,5.06a5.55,5.55,0,0,0,3.2-1l.41,1a6.83,6.83,0,0,1-4,1.23c-3,0-4.29-1.73-4.29-5.34Z" transform="translate(-6.05 -4)" fill="#12104e"/></svg>